<?xml version="1.0" encoding="utf-8"?>
<!-- Generator: Adobe Illustrator 25.2.1, SVG Export Plug-In . SVG Version: 6.00 Build 0)  -->
<svg version="1.1" id="Layer_1" xmlns="http://www.w3.org/2000/svg" xmlns:xlink="http://www.w3.org/1999/xlink" x="0px" y="0px"
	 viewBox="0 0 305.24 305.24" style="enable-background:new 0 0 305.24 305.24;" xml:space="preserve">
<style type="text/css">
	.st0{fill:#9CD3F4;}
	.st1{opacity:0.07;fill:#1F1F1F;}
	.st2{fill:#E1D6B9;}
	.st3{fill:#394655;}
	.st4{opacity:0.07;}
	.st5{fill:#1F1F1F;}
	.st6{fill:#3A4756;}
	.st7{fill:#51616E;}
	.st8{fill:#3A4756;stroke:#394655;stroke-miterlimit:10;}
	.st9{fill:#FFFFFF;}
	.st10{fill:#3A4555;}
	.st11{fill:#2F3536;}
	.st12{fill:#E2D0CB;}
</style>
<g>
	<g>
		<rect x="185.68" y="221.33" class="st0" width="4" height="5"/>
		<rect x="185.68" y="221.33" class="st1" width="4" height="5"/>
	</g>
	<g>
		<rect x="125.68" y="226.33" class="st0" width="4" height="5"/>
		<rect x="125.68" y="226.33" class="st1" width="4" height="5"/>
	</g>
	<path class="st2" d="M197.56,210.22c17.19,17.91,22.63,43.55,14.19,66.91c-0.62,1.73-2.08,2.92-3.75,3.28
		c-0.91,0.2-1.88,0.15-2.83-0.19c-2.67-0.96-4.05-3.91-3.09-6.58c7.1-19.66,2.53-41.24-11.94-56.3c-1.97-2.05-1.9-5.3,0.15-7.27
		C192.34,208.1,195.59,208.17,197.56,210.22z"/>
	<path class="st3" d="M214.82,239.54c-1.62-6-4.18-11.61-7.12-17.56c-0.01-0.02-0.01-0.04-0.02-0.06
		c-2.59-4.42-5.73-8.59-9.39-12.41h0c-2.34-2.44-6.24-2.52-8.68-0.18c-2.44,2.34-2.52,6.24-0.18,8.68c1.95,2.03,3.7,4.18,5.28,6.42
		c0.34,0.19,0.66,0.47,0.92,0.86c1.93,2.85,3.42,5.89,4.57,9.04c3.57,8.44,4.89,17.67,3.81,26.87c-0.08,2.71-0.35,5.4-0.92,8.05
		c-0.42,1.94-1.18,3.86-1.96,5.78c0.01,0.26,0,0.52-0.07,0.81c-0.02,0.1-0.04,0.2-0.06,0.3c0.51,0.42,0.89,1.03,0.99,1.82
		c0.07,0.6,0.24,1.12,0.46,1.59c0.64,0.69,1.44,1.25,2.39,1.59c0.07,0.03,0.15,0.04,0.22,0.06c0.16,0,0.31,0.01,0.47,0
		c1.68-0.1,3.19-0.15,4.68-0.66c1.13-0.72,2.01-1.79,2.48-3.09c0.99-2.73,1.78-5.5,2.4-8.28c0.08-0.8,0.16-1.58,0.27-2.31
		c0.75-4.82,1.31-9.45,1.26-14.29C216.46,248.18,215.85,243.81,214.82,239.54z M213.59,266.51c-0.64,3.45-1.56,6.89-2.78,10.28
		c-0.49,1.35-1.62,2.34-3.02,2.64c-0.76,0.16-1.54,0.11-2.28-0.16c-2.09-0.76-3.19-3.04-2.53-5.14c0.13-1.81,0.57-3.57,1.12-5.3
		c0.28-0.86,0.56-1.71,0.83-2.58c0.25-1.11,0.58-2.22,0.6-3.35c0.03-1.41,0.05-2.81,0.1-4.22c0.05-1.43,0.04-2.87-0.01-4.3
		c-0.11-2.83-0.25-5.75-0.82-8.53c-0.51-2.5-1.26-4.97-1.3-7.53c-0.53-0.89-0.95-1.84-1.3-2.84c-0.58-1.68-1.15-3.33-1.86-4.97
		c-0.62-1.43-1.53-2.72-2.05-4.18c-0.45-0.74-0.92-1.46-1.41-2.18c-0.18,0.06-0.37,0.1-0.59,0.1c-1.63,0-2.07-1.81-1.36-2.83
		c-1.27-1.66-2.63-3.26-4.1-4.79c-1.58-1.65-1.53-4.27,0.12-5.85c0.8-0.77,1.83-1.15,2.87-1.15c1.09,0,2.18,0.43,2.99,1.27
		c2.66,2.77,5.02,5.74,7.1,8.84c0.08-0.01,0.15-0.02,0.24-0.02c1.55,0,2.03,1.65,1.46,2.68c0.36,0.6,0.7,1.2,1.04,1.8
		c0.1,0.03,0.2,0.09,0.29,0.2c0.59,0.76,0.92,1.56,1.25,2.46c0.37,1.02,0.94,1.9,1.45,2.85c0.94,1.76,1.41,3.71,1.89,5.64
		c2.18,6.67,3.22,13.67,3.09,20.72c0.12,1.03,0.22,2.07,0.22,3.11C214.85,261.65,214.34,264.13,213.59,266.51z"/>
	<g>
		<path class="st2" d="M114.42,210.22c17.19,17.91,22.63,43.55,14.19,66.91c-0.62,1.73-2.08,2.92-3.75,3.28
			c-0.91,0.2-1.88,0.15-2.83-0.19c-2.67-0.96-4.05-3.91-3.09-6.58c7.1-19.66,2.53-41.24-11.94-56.3c-1.97-2.05-1.9-5.3,0.15-7.27
			C109.2,208.1,112.45,208.17,114.42,210.22z"/>
	</g>
	<g>
		<path class="st2" d="M91.43,221.75c-1.49-2.42-0.74-5.58,1.68-7.07c2.42-1.49,5.58-0.74,7.07,1.68
			c13.03,21.13,12.93,47.34-0.24,68.4c-0.98,1.56-2.65,2.41-4.36,2.41c-0.93,0-1.87-0.25-2.72-0.78c-2.41-1.51-3.14-4.68-1.63-7.08
			C102.31,261.58,102.39,239.53,91.43,221.75z"/>
	</g>
	<path class="st2" d="M174.57,221.75c-1.49-2.42-0.74-5.58,1.68-7.07c2.42-1.49,5.58-0.74,7.07,1.68
		c13.03,21.13,12.93,47.34-0.24,68.4c-0.97,1.56-2.65,2.41-4.36,2.41c-0.93,0-1.87-0.25-2.72-0.78c-2.41-1.51-3.14-4.68-1.63-7.08
		C185.45,261.58,185.53,239.53,174.57,221.75z"/>
	<path class="st2" d="M72.54,183.05l-2.03-3.82c-16.74-0.91-31.61-15.59-32.73-32.32c10.69,8.02,23.39,13.34,36.61,15.35
		C74.14,169.21,73.52,176.16,72.54,183.05z"/>
	<g>
		<path class="st3" d="M130.36,234.87c-0.21-0.36-0.43-0.71-0.66-1.05c-0.45-0.67-0.54-1.33-0.39-1.91
			c-0.12-0.31-0.25-0.62-0.38-0.93c-0.22,0.1-0.47,0.16-0.76,0.16c-0.1,0-0.19-0.01-0.28-0.03c-0.09,0.01-0.19,0.03-0.29,0.03
			c-0.09,0-0.18-0.01-0.26-0.03c-0.07,0.19-0.15,0.37-0.28,0.53c0.46,1.15,0.87,2.31,1.25,3.48c0.24,0.3,0.46,0.61,0.67,0.92
			c0.8,1.24,0.83,2.68,1.23,4.05c0.09,0.3,0.08,0.6,0,0.87c0.83,1.99,1.52,4,1.53,6.19c0.01,2.05-0.08,4.16-0.25,6.22
			c0.19,7.81-1.05,15.73-3.82,23.4c-0.49,1.35-1.62,2.34-3.03,2.64c-0.76,0.16-1.54,0.11-2.28-0.16c-2.15-0.78-3.26-3.15-2.49-5.3
			c0.11-0.31,0.2-0.61,0.31-0.92c0.08-0.4,0.17-0.8,0.27-1.2c0.44-1.73,0.65-3.51,1.2-5.22c0.1-0.3,0.26-0.55,0.46-0.75
			c0.79-3.95,1.16-7.93,1.09-11.88c-0.08-0.27-0.16-0.54-0.23-0.81c-0.47-2.01-0.52-4.05-0.69-6.1c-0.16-1.94-0.54-3.9-0.92-5.81
			c-0.18-0.89-0.38-1.78-0.64-2.65c-0.01-0.02-0.01-0.04-0.02-0.05c-0.26-0.87-0.59-1.72-1.01-2.53c-0.17-0.32-0.22-0.64-0.2-0.93
			c-2.61-6.74-6.57-13.03-11.8-18.49c-1.58-1.65-1.53-4.27,0.12-5.85c0.8-0.77,1.83-1.15,2.87-1.15c1.09,0,2.18,0.42,2.99,1.27
			c5.12,5.33,9.18,11.37,12.12,17.82c0.07,0,0.13,0.03,0.19,0.03c0.2-0.6,0.7-1.08,1.49-1.12c-3.02-6.56-7.15-12.7-12.36-18.13h0
			c-2.34-2.44-6.24-2.52-8.68-0.18c-2.44,2.35-2.52,6.24-0.18,8.68c3.15,3.28,5.82,6.87,7.99,10.69c0.15,0.11,0.29,0.23,0.43,0.38
			c2.61,2.83,3.41,6.5,4.15,10.16c0.94,3.03,1.61,6.15,1.99,9.3c0.68,3.61,1.08,7.28,0.62,10.92c-0.17,1.35-0.52,2.71-0.93,4.09
			c-0.51,3.11-1.29,6.21-2.37,9.26c-0.06,0.75-0.07,1.49,0,2.24c0.49,5.06,4.53,6.05,8.7,5.61c1.23-0.71,2.19-1.83,2.69-3.21
			c0.64-1.76,1.19-3.54,1.67-5.33c0.04-0.39,0.07-0.77,0.11-1.16c0.61-5.12,1.76-11.21,2.17-17.28
			C133.38,247.29,132.33,240.95,130.36,234.87z"/>
	</g>
	<g>
		<path class="st3" d="M101.03,215.83c-1.78-2.88-5.57-3.78-8.45-2c-2.39,1.48-3.41,4.34-2.67,6.91c0.62,0.27,1.17,0.76,1.48,1.53
			c2.59,6.44,5.96,12.73,7.01,19.67c0.95,6.32,0.98,12.9,0,19.21c-1.16,7.46-4.68,13.49-8.73,19.27c-0.25,0.91-0.27,1.86-0.09,2.77
			c1.97,3.84,5.73,6.75,9.71,3.4c0.29-0.24,0.59-0.4,0.9-0.51c0.22-0.25,0.43-0.51,0.61-0.8c0.38-0.61,0.75-1.22,1.11-1.84
			c0.1-0.23,0.21-0.46,0.39-0.68c0,0,0.01-0.01,0.01-0.01c2.01-3.54,3.66-7.21,4.96-10.96c0.67-2.52,1.19-5.09,1.75-7.62
			c0.59-2.63,1.18-5.3,1.61-7.98C111.86,242.35,108.68,228.23,101.03,215.83z M107.45,263.56c0,0.02-0.01,0.04-0.01,0.08
			c-0.01,0.06-0.01,0.12-0.02,0.18c-0.02,0.14-0.03,0.28-0.04,0.42c-0.02,0.28-0.03,0.57-0.04,0.85c0,0.33-0.1,0.62-0.25,0.88
			c0.17,0.36,0.23,0.76,0.08,1.13c-0.6,1.47-0.6,3.07-1.2,4.54c-0.63,1.55-1.51,2.99-2.26,4.49c-0.71,1.44-1.36,2.99-2.28,4.31
			c-0.16,0.23-0.33,0.43-0.51,0.63c-0.58,1.06-1.18,2.11-1.83,3.14c-0.76,1.22-2.08,1.95-3.51,1.95c-0.77,0-1.53-0.22-2.19-0.63
			c-1.93-1.21-2.52-3.77-1.31-5.71c4.99-7.98,7.79-16.81,8.4-25.76c-0.17-2.36-0.37-4.7-0.33-7.08c0.02-0.95,0.02-1.89-0.08-2.82
			c-0.03-0.26-0.07-0.51-0.13-0.76c-0.24-1.14-0.67-2.14-0.75-3.33c-0.07-0.92-0.09-1.84-0.24-2.76c-0.33-2.11-1.31-3.74-2.1-5.69
			c-0.74-1.8-1.77-3.63-1.99-5.58c-0.01-0.07,0-0.13,0.01-0.19c-0.78-1.58-1.63-3.13-2.57-4.65c-1.2-1.94-0.59-4.5,1.35-5.7
			c1.94-1.2,4.5-0.59,5.7,1.35c1.72,2.79,3.2,5.67,4.45,8.61c0.21-0.09,0.45-0.15,0.72-0.15c1.87,0,2.18,2.4,0.94,3.22
			c0,0.27-0.07,0.54-0.18,0.78c0.09,0.25,0.16,0.51,0.25,0.77c0.21,0.3,0.35,0.66,0.4,1.05c0.07,0.61,0.64,1.24,0.9,1.79
			c0.36,0.75,0.64,1.53,0.85,2.34c0.45,1.71,0.79,3.46,1,5.21c0.18,1.49,0.16,2.98-0.04,4.46
			C109.15,251.17,108.76,257.43,107.45,263.56z"/>
	</g>
	<path class="st3" d="M193.5,247.53c-0.54-6.56-2.77-12.83-3.5-19.39c-0.01-0.12,0-0.22,0-0.33c-0.23-0.63-0.49-1.25-0.74-1.88
		c-0.25,0.17-0.57,0.28-0.95,0.28c-0.08,0-0.15-0.01-0.23-0.02c-0.03,0.11-0.06,0.22-0.12,0.32c-0.01,0.02-0.02,0.04-0.03,0.06
		c-0.01,0.31-0.08,0.62-0.23,0.88c2.94,7.59,4.35,15.56,4.28,23.53c0.09,0.2,0.14,0.44,0.14,0.71c-0.01,3.97-0.46,7.99-1.49,11.85
		c-1.53,7.19-4.33,14.19-8.4,20.69c-0.76,1.22-2.08,1.95-3.51,1.95c-0.77,0-1.53-0.22-2.19-0.63c-1.93-1.21-2.52-3.77-1.31-5.71
		c4.24-6.77,6.88-14.17,7.96-21.72c0.04-1.41,0.04-2.82,0.08-4.21c0.08-2.36,0.43-4.96-0.15-7.28c-0.28-1.14-0.7-2.22-0.82-3.4
		c-0.12-1.19,0.06-2.38-0.1-3.57c-0.04-0.34-0.17-0.67,0.02-0.94c-0.8-3.67-1.71-7.3-3.28-10.81c-0.21,0.09-0.45,0.15-0.73,0.15
		c-1.95,0-2.21-2.6-0.8-3.32c-0.62-1.18-1.28-2.35-1.99-3.5c-1.2-1.94-0.59-4.5,1.35-5.7c1.94-1.2,4.5-0.59,5.7,1.35
		c1.32,2.13,2.49,4.32,3.53,6.55c0.11-0.02,0.23-0.03,0.35-0.03c0.19,0,0.37,0.03,0.53,0.08c0.21-0.35,0.54-0.62,1-0.72
		c-1.09-2.36-2.32-4.67-3.7-6.93c-1.78-2.88-5.57-3.78-8.45-2c-2.88,1.78-3.78,5.57-2,8.45c1.01,1.64,1.93,3.32,2.75,5.03
		c0.63,0.27,1.16,0.8,1.42,1.64c0.73,2.4,1.37,4.81,1.91,7.24c1.68,6.07,2.26,12.35,1.75,18.56c-0.12,2.64-0.42,5.28-0.91,7.93
		c-1.35,7.17-4.59,12.92-8.01,18.74c-0.04,0.36-0.03,0.71,0,1.06c0.86,2.49,2.01,4.78,4.96,5.12c2.98,0.35,5.84-1.42,7.31-3.91
		c0.38-0.64,0.74-1.29,1.1-1.94c1.61-5.3,4.67-10.02,6.05-15.49C193.57,260.19,194.01,253.78,193.5,247.53z"/>
	<path class="st3" d="M74.53,161.27c-0.94-0.14-1.88-0.31-2.81-0.48c-6.43-0.26-12.68-2.96-18.4-5.82
		c-2.34-1.06-4.62-2.24-6.85-3.52c-3.23-1.68-6.45-3.38-9.67-5.06c0.01,0.57,0.04,1.13,0.08,1.69c0.59,5.7,2.75,11.16,6.01,15.92
		c4.06,5.62,9.82,10.11,16.31,12.76c2.16,0.88,4.27,1.83,6.36,2.81c1.42,0.31,2.87,0.52,4.33,0.63l1.1,2.06
		c0.83,0.44,1.67,0.87,2.49,1.32l0.05-0.38c0.99-6.9,1.61-13.94,1.86-20.9l0.03-0.89L74.53,161.27z M71.96,179.83l-0.84-1.58
		l-0.56-0.03c-1.89-0.1-3.76-0.39-5.59-0.85c-0.2,0.06-0.43,0.03-0.62-0.15c-0.01-0.01-0.03-0.02-0.05-0.03
		c-4.96-1.35-9.6-3.91-13.53-7.32c-0.14-0.08-0.27-0.16-0.41-0.25c-1.88-1.24-3.29-2.94-4.52-4.8c-0.26-0.39-0.52-0.78-0.79-1.18
		c-3.14-4.34-5.3-9.34-6.05-14.6c2.74,1.94,5.6,3.7,8.55,5.29c1.15,0.35,2.27,0.73,3.36,1.34c1.96,1.09,4.15,1.74,6.24,2.53
		c2.28,0.86,4.52,1.87,6.87,2.56c2.27,0.66,4.59,1.63,6.98,1.64c0.36,0,0.6,0.18,0.75,0.42c0.53,0.1,1.07,0.2,1.6,0.28
		C73.13,168.68,72.66,174.29,71.96,179.83z"/>
	<path class="st0" d="M234.15,107.2c-0.13-13.85-10.79-24.1-24.1-24.1s-23.14,10.82-24.1,24.1c-4.65,64.38-98.41,30.12-112.68,50.37
		c-0.97,1.38-1.83,2.77-2.61,4.15c0.59,0.31,0.87,0.94,0.86,1.58c0.1,0.27,0.13,0.56,0.1,0.85c0.07,0.41,0.1,0.84,0.07,1.3
		c-0.1,1.57-0.41,3.11-0.91,4.6c-0.45,1.35-0.7,2.76-1.31,4.06c-0.11,0.24-0.25,0.47-0.4,0.69c0,0.22-0.05,0.42-0.15,0.61
		c-0.07,0.22-0.19,0.41-0.36,0.56c-0.17,0.2-0.35,0.37-0.54,0.55c-0.01,0.01-0.02,0.02-0.03,0.03c-0.26,0.35-0.51,0.71-0.81,1.04
		c-0.22,0.22-0.48,0.37-0.77,0.45c-0.05,0.01-0.11,0.01-0.16,0.02c-0.21,0.13-0.46,0.22-0.77,0.23
		c-1.58,20.51,13.77,37.94,22.19,43.11c1.69,1.04,4.23,2.38,7.01,3.69c0.31-0.27,0.69-0.43,1.08-0.38c3.15,0.41,6.42,1.23,9.08,3.05
		c0.55,0.38,0.85,0.94,0.85,1.54c0.63,0.16,1.23,0.29,1.76,0.37c3.35,0.49,6.72,0.89,10.09,1.22c0.04-0.14,0.09-0.27,0.16-0.38
		c0.19-0.33,0.65-0.75,1.05-0.81c2.77-0.38,5.51-0.41,8.27,0.17c0.84,0.18,1.3,1.03,1.27,1.83c16.67,0.88,33.44-0.05,49.91-2.78
		c-0.32-0.54-0.35-1.26-0.03-1.8c2.11-3.58,6.93-2.17,10.17-1.49c0.59,0.12,1,0.59,1.17,1.13c2.05-0.45,4.1-0.91,6.14-1.41
		c0.25-0.06,0.49-0.12,0.74-0.19c-0.51-0.81-0.14-1.91,0.63-2.39c2.66-1.65,5.95-1.86,8.97-1.32c0.26,0.05,0.47,0.16,0.65,0.32
		c3.36-1.53,6.43-3.53,8.84-6.32c6.21-7.2,6.47-17.62,6.4-27.13c-0.1-14.81,0.11-46.21,0.01-61.02
		C230,122.85,234.22,115.17,234.15,107.2z"/>
	<path class="st1" d="M234.15,107.2c-0.03-3.79-0.88-7.29-2.33-10.4c-1.79-0.77-3.64-1.42-5.53-1.93
		c-11.88-3.22-24.56-0.85-36.31,2.81c-0.64,0.2-1.28,0.41-1.92,0.65c-1.14,2.75-1.88,5.73-2.1,8.87c-0.24,3.32-0.73,6.37-1.42,9.18
		c2.31,3.64,5.49,6.72,9.24,8.83c4.3,2.43,9.38,3.72,12.8,7.28c2.76,2.88,4.02,6.87,4.96,10.75c3.54,14.65,3.64,30.37-1.47,44.55
		c-5.11,14.18-15.74,26.64-29.69,32.35c-8.46,3.46-17.73,4.38-26.87,4.87c-21.81,1.16-43.74,0.04-65.32-3.31
		c1.67,0.99,4,2.2,6.52,3.39c0.31-0.26,0.69-0.43,1.08-0.38c3.15,0.41,6.42,1.23,9.08,3.05c0.55,0.38,0.85,0.94,0.85,1.54
		c0.63,0.16,1.23,0.29,1.76,0.36c3.35,0.49,6.72,0.89,10.08,1.22c0.04-0.14,0.09-0.27,0.16-0.38c0.19-0.33,0.65-0.75,1.05-0.81
		c2.77-0.38,5.51-0.41,8.27,0.17c0.84,0.18,1.3,1.03,1.27,1.83c16.67,0.88,33.44-0.05,49.91-2.78c-0.32-0.54-0.35-1.26-0.03-1.8
		c2.11-3.58,6.93-2.17,10.17-1.49c0.59,0.12,1,0.59,1.17,1.13c2.05-0.45,4.1-0.91,6.14-1.41c0.25-0.06,0.49-0.12,0.74-0.19
		c-0.51-0.81-0.14-1.91,0.63-2.39c2.66-1.65,5.95-1.86,8.97-1.32c0.26,0.05,0.47,0.16,0.65,0.32c3.36-1.53,6.43-3.53,8.84-6.32
		c6.21-7.2,6.47-17.62,6.4-27.13c-0.1-14.81,0.11-46.21,0.01-61.02C230,122.85,234.22,115.17,234.15,107.2z"/>
	<g>
		<g class="st4">
			<g>
				<path class="st5" d="M83.71,159.62c0.85,0.29,1.71,0.59,2.56,0.88c0.91,0.31,0.52,1.76-0.4,1.45c-0.85-0.29-1.71-0.59-2.56-0.88
					C82.4,160.75,82.79,159.3,83.71,159.62z"/>
			</g>
			<g>
				<path class="st5" d="M90.99,171.18c0.57,0.16,1.14,0.31,1.7,0.47c0.93,0.26,0.54,1.7-0.4,1.45c-0.57-0.16-1.14-0.31-1.7-0.47
					C89.66,172.37,90.05,170.93,90.99,171.18z"/>
			</g>
			<g>
				<path class="st5" d="M100.39,163.53c0.71,0.21,1.43,0.43,2.14,0.64c0.92,0.28,0.53,1.72-0.4,1.45
					c-0.71-0.21-1.43-0.43-2.14-0.64C99.07,164.7,99.46,163.25,100.39,163.53z"/>
			</g>
			<g>
				<path class="st5" d="M107.26,175.05c0.77,0.19,1.44,0.56,2.03,1.09c0.72,0.64-0.34,1.7-1.06,1.06c-0.4-0.36-0.85-0.57-1.37-0.7
					C105.92,176.27,106.32,174.83,107.26,175.05z"/>
			</g>
			<g>
				<path class="st5" d="M95.86,184.58c0.5,0.27,0.99,0.36,1.55,0.32c0.96-0.06,0.96,1.44,0,1.5c-0.82,0.05-1.59-0.13-2.31-0.52
					C94.26,185.42,95.01,184.12,95.86,184.58z"/>
			</g>
			<g>
				<path class="st5" d="M119.25,168.4c0.5,0.07,1,0.15,1.5,0.22c0.4,0.06,0.62,0.57,0.52,0.92c-0.11,0.43-0.52,0.58-0.92,0.52
					c-0.5-0.07-1-0.15-1.5-0.22c-0.4-0.06-0.62-0.57-0.52-0.92C118.44,168.5,118.85,168.34,119.25,168.4z"/>
			</g>
			<g>
				<path class="st5" d="M120.58,185.65c0.97,0.4,1.83,0.9,2.65,1.55c0.76,0.59-0.31,1.65-1.06,1.06c-0.6-0.47-1.28-0.87-1.99-1.16
					c-0.38-0.16-0.64-0.5-0.52-0.92C119.75,185.82,120.21,185.49,120.58,185.65z"/>
			</g>
			<g>
				<path class="st5" d="M132.1,176.75c0.71,0.17,1.41,0.34,2.12,0.51c0.94,0.23,0.54,1.67-0.4,1.45c-0.71-0.17-1.41-0.34-2.12-0.51
					C130.76,177.97,131.16,176.53,132.1,176.75z"/>
			</g>
			<g>
				<path class="st5" d="M144.55,170.82c1.18-0.17,2.27-0.02,3.36,0.48c0.88,0.4,0.12,1.69-0.76,1.3c-0.68-0.31-1.46-0.43-2.21-0.33
					c-0.4,0.06-0.8-0.1-0.92-0.52C143.92,171.39,144.14,170.88,144.55,170.82z"/>
			</g>
			<g>
				<path class="st5" d="M143.44,188.35c0.57,0.14,1.14,0.28,1.71,0.43c0.94,0.23,0.54,1.68-0.4,1.45
					c-0.57-0.14-1.14-0.28-1.71-0.43C142.11,189.57,142.5,188.12,143.44,188.35z"/>
			</g>
			<g>
				<path class="st5" d="M128.84,197.81c0.65,0.2,1.29,0.41,1.94,0.61c0.92,0.29,0.53,1.74-0.4,1.45c-0.65-0.2-1.29-0.41-1.94-0.61
					C127.52,198.97,127.92,197.52,128.84,197.81z"/>
			</g>
			<g>
				<path class="st5" d="M148.18,199.85c0.71,0.23,1.42,0.45,2.13,0.68c0.92,0.29,0.52,1.74-0.4,1.45
					c-0.71-0.23-1.42-0.45-2.13-0.68C146.86,201.01,147.25,199.56,148.18,199.85z"/>
			</g>
			<g>
				<path class="st5" d="M156.09,177.79c0.57,0.01,1.14,0.03,1.71,0.04c0.96,0.02,0.97,1.52,0,1.5c-0.57-0.01-1.14-0.03-1.71-0.04
					C155.13,179.26,155.13,177.76,156.09,177.79z"/>
			</g>
			<g>
				<path class="st5" d="M106.34,194.03c0.69,0.37,1.42,0.53,2.2,0.51c0.97-0.02,0.97,1.48,0,1.5c-1.05,0.02-2.04-0.23-2.96-0.72
					C104.73,194.87,105.49,193.57,106.34,194.03z"/>
			</g>
			<g>
				<path class="st5" d="M79.97,171.06c0.65,0.28,1.29,0.56,1.94,0.84c0.88,0.38,0.12,1.67-0.76,1.3c-0.65-0.28-1.29-0.56-1.94-0.84
					C78.33,171.97,79.09,170.68,79.97,171.06z"/>
			</g>
		</g>
		<g class="st4">
			<g>
				<path class="st5" d="M130.82,157.39c0.85,0.29,1.71,0.59,2.56,0.88c0.91,0.31,0.52,1.76-0.4,1.45
					c-0.85-0.29-1.71-0.59-2.56-0.88C129.51,158.53,129.9,157.08,130.82,157.39z"/>
			</g>
			<g>
				<path class="st5" d="M143.45,151.29c0.57,0.16,1.14,0.31,1.7,0.47c0.93,0.26,0.54,1.7-0.4,1.45c-0.57-0.16-1.13-0.31-1.7-0.47
					C142.12,152.49,142.51,151.04,143.45,151.29z"/>
			</g>
			<g>
				<path class="st5" d="M116.36,154.75c0.71,0.21,1.43,0.43,2.14,0.64c0.92,0.28,0.53,1.72-0.4,1.45
					c-0.71-0.21-1.43-0.43-2.14-0.64C115.03,155.93,115.43,154.48,116.36,154.75z"/>
			</g>
			<g>
				<path class="st5" d="M163.77,149.57c0.77,0.19,1.44,0.56,2.03,1.09c0.72,0.64-0.34,1.7-1.06,1.06c-0.4-0.36-0.85-0.57-1.37-0.7
					C162.43,150.79,162.83,149.35,163.77,149.57z"/>
			</g>
			<g>
				<path class="st5" d="M152.38,159.1c0.5,0.27,0.99,0.36,1.55,0.32c0.96-0.06,0.96,1.44,0,1.5c-0.82,0.05-1.59-0.13-2.31-0.52
					C150.77,159.94,151.53,158.64,152.38,159.1z"/>
			</g>
			<g>
				<path class="st5" d="M175.76,142.92c0.5,0.07,1,0.15,1.5,0.22c0.4,0.06,0.62,0.57,0.52,0.92c-0.11,0.43-0.52,0.58-0.92,0.52
					c-0.5-0.07-1-0.15-1.5-0.22c-0.4-0.06-0.62-0.57-0.52-0.92C174.95,143.02,175.36,142.86,175.76,142.92z"/>
			</g>
			<g>
				<path class="st5" d="M177.1,160.17c0.97,0.4,1.83,0.9,2.65,1.55c0.76,0.59-0.31,1.65-1.06,1.06c-0.6-0.47-1.28-0.87-1.99-1.16
					c-0.38-0.16-0.64-0.5-0.52-0.92C176.27,160.34,176.72,160.01,177.1,160.17z"/>
			</g>
			<g>
				<path class="st5" d="M188.62,151.27c0.71,0.17,1.41,0.34,2.12,0.51c0.94,0.23,0.54,1.67-0.4,1.45
					c-0.71-0.17-1.41-0.34-2.12-0.51C187.28,152.49,187.68,151.05,188.62,151.27z"/>
			</g>
			<g>
				<path class="st5" d="M201.06,145.34c1.18-0.17,2.27-0.02,3.36,0.48c0.88,0.4,0.12,1.69-0.76,1.3c-0.68-0.31-1.46-0.43-2.21-0.33
					c-0.4,0.06-0.8-0.1-0.92-0.52C200.43,145.91,200.66,145.4,201.06,145.34z"/>
			</g>
			<g>
				<path class="st5" d="M199.96,162.88c0.57,0.14,1.14,0.28,1.71,0.43c0.94,0.23,0.54,1.68-0.4,1.45
					c-0.57-0.14-1.14-0.28-1.71-0.43C198.62,164.09,199.02,162.64,199.96,162.88z"/>
			</g>
			<g>
				<path class="st5" d="M185.35,172.33c0.65,0.2,1.29,0.41,1.94,0.61c0.92,0.29,0.53,1.74-0.4,1.45c-0.65-0.2-1.29-0.41-1.94-0.61
					C184.04,173.49,184.43,172.04,185.35,172.33z"/>
			</g>
			<g>
				<path class="st5" d="M204.69,174.37c0.71,0.23,1.42,0.45,2.13,0.68c0.92,0.29,0.52,1.74-0.4,1.45
					c-0.71-0.23-1.42-0.45-2.13-0.68C203.38,175.53,203.77,174.08,204.69,174.37z"/>
			</g>
			<g>
				<path class="st5" d="M167.68,183.79c0.5,0.07,1,0.15,1.5,0.22c0.4,0.06,0.62,0.57,0.52,0.92c-0.11,0.43-0.52,0.58-0.92,0.52
					c-0.5-0.07-1-0.15-1.5-0.22c-0.4-0.06-0.62-0.57-0.52-0.92C166.87,183.88,167.28,183.73,167.68,183.79z"/>
			</g>
			<g>
				<path class="st5" d="M164.31,194.91c0.97,0.4,1.83,0.9,2.65,1.55c0.76,0.59-0.31,1.65-1.06,1.06c-0.6-0.47-1.28-0.87-1.99-1.16
					c-0.38-0.16-0.64-0.5-0.52-0.92C163.48,195.08,163.93,194.75,164.31,194.91z"/>
			</g>
			<g>
				<path class="st5" d="M180.53,192.14c0.71,0.17,1.41,0.34,2.12,0.51c0.94,0.23,0.54,1.67-0.4,1.45
					c-0.71-0.17-1.41-0.34-2.12-0.51C179.2,193.36,179.59,191.91,180.53,192.14z"/>
			</g>
			<g>
				<path class="st5" d="M192.98,186.2c1.18-0.17,2.27-0.02,3.36,0.48c0.88,0.4,0.12,1.69-0.76,1.3c-0.68-0.31-1.46-0.43-2.21-0.33
					c-0.4,0.06-0.8-0.1-0.92-0.52C192.35,186.77,192.58,186.26,192.98,186.2z"/>
			</g>
			<g>
				<path class="st5" d="M191.88,203.74c0.57,0.14,1.14,0.28,1.71,0.43c0.94,0.23,0.54,1.68-0.4,1.45
					c-0.57-0.14-1.14-0.28-1.71-0.43C190.54,204.95,190.94,203.5,191.88,203.74z"/>
			</g>
			<g>
				<path class="st5" d="M177.27,213.19c0.65,0.2,1.29,0.41,1.94,0.61c0.92,0.29,0.53,1.74-0.4,1.45c-0.65-0.2-1.29-0.41-1.94-0.61
					C175.96,214.35,176.35,212.9,177.27,213.19z"/>
			</g>
			<g>
				<path class="st5" d="M200.61,194.23c0.71,0.23,1.42,0.45,2.13,0.68c0.92,0.29,0.52,1.74-0.4,1.45
					c-0.71-0.23-1.42-0.45-2.13-0.68C199.29,195.38,199.68,193.93,200.61,194.23z"/>
			</g>
			<g>
				<path class="st5" d="M129.48,219.89c0.97,0.4,1.83,0.91,2.65,1.55c0.76,0.6-0.31,1.65-1.06,1.06c-0.6-0.47-1.28-0.87-1.99-1.17
					c-0.38-0.16-0.64-0.5-0.52-0.92C128.65,220.06,129.1,219.73,129.48,219.89z"/>
			</g>
			<g>
				<path class="st5" d="M140.99,210.95c0.71,0.17,1.41,0.34,2.12,0.51c0.94,0.23,0.54,1.67-0.4,1.45
					c-0.71-0.17-1.41-0.34-2.12-0.51C139.65,212.17,140.05,210.73,140.99,210.95z"/>
			</g>
			<g>
				<path class="st5" d="M160.89,215.79c1.18-0.17,2.27-0.02,3.36,0.48c0.88,0.4,0.12,1.69-0.76,1.3c-0.68-0.31-1.46-0.43-2.2-0.33
					c-0.4,0.06-0.8-0.1-0.92-0.52C160.26,216.36,160.49,215.84,160.89,215.79z"/>
			</g>
			<g>
				<path class="st5" d="M149.11,221.03c0.57,0.14,1.14,0.29,1.71,0.43c0.94,0.23,0.54,1.68-0.4,1.45
					c-0.57-0.14-1.14-0.29-1.71-0.43C147.78,222.25,148.17,220.8,149.11,221.03z"/>
			</g>
			<g>
				<path class="st5" d="M119.78,209.07c0.65,0.2,1.29,0.41,1.94,0.61c0.92,0.29,0.53,1.74-0.4,1.45c-0.65-0.2-1.29-0.41-1.94-0.61
					C118.46,210.23,118.85,208.78,119.78,209.07z"/>
			</g>
			<g>
				<path class="st5" d="M162.71,206.34c0.71,0.23,1.42,0.46,2.13,0.68c0.92,0.29,0.52,1.74-0.4,1.45
					c-0.71-0.23-1.42-0.46-2.13-0.68C161.39,207.49,161.78,206.04,162.71,206.34z"/>
			</g>
			<g>
				<path class="st5" d="M188.62,135.09c0.57,0.01,1.14,0.03,1.71,0.04c0.96,0.02,0.97,1.52,0,1.5c-0.57-0.01-1.14-0.03-1.71-0.04
					C187.66,136.56,187.65,135.06,188.62,135.09z"/>
			</g>
			<g>
				<path class="st5" d="M162.86,168.55c0.69,0.37,1.42,0.53,2.2,0.51c0.97-0.02,0.97,1.48,0,1.5c-1.05,0.02-2.04-0.23-2.96-0.72
					C161.25,169.39,162.01,168.09,162.86,168.55z"/>
			</g>
			<g>
				<path class="st5" d="M100.68,152.45c0.65,0.28,1.29,0.56,1.94,0.84c0.88,0.38,0.12,1.67-0.76,1.3
					c-0.65-0.28-1.29-0.56-1.94-0.84C99.03,153.37,99.8,152.07,100.68,152.45z"/>
			</g>
			<g>
				<path class="st5" d="M81.63,205.66c0.97,0.4,1.83,0.9,2.65,1.55c0.76,0.59-0.31,1.65-1.06,1.06c-0.6-0.47-1.28-0.87-1.99-1.16
					c-0.38-0.16-0.64-0.5-0.52-0.92C80.8,205.83,81.25,205.51,81.63,205.66z"/>
			</g>
			<g>
				<path class="st5" d="M80.67,186.75c0.71,0.17,1.41,0.34,2.12,0.51c0.94,0.23,0.54,1.67-0.4,1.45c-0.71-0.17-1.41-0.34-2.12-0.51
					C79.33,187.97,79.73,186.52,80.67,186.75z"/>
			</g>
			<g>
				<path class="st5" d="M70.71,191.63c0.71,0.17,1.41,0.34,2.12,0.51c0.94,0.23,0.54,1.67-0.4,1.45c-0.71-0.17-1.41-0.34-2.12-0.51
					C69.38,192.85,69.77,191.4,70.71,191.63z"/>
			</g>
			<g>
				<path class="st5" d="M90.9,197.64c1.18-0.17,2.27-0.02,3.36,0.48c0.88,0.4,0.12,1.69-0.76,1.3c-0.68-0.31-1.46-0.43-2.21-0.33
					c-0.4,0.06-0.8-0.1-0.92-0.52C90.27,198.21,90.5,197.69,90.9,197.64z"/>
			</g>
			<g>
				<path class="st5" d="M93.22,213.59c0.57,0.14,1.14,0.28,1.71,0.43c0.94,0.23,0.54,1.68-0.4,1.45c-0.57-0.14-1.14-0.28-1.71-0.43
					C91.89,214.8,92.28,213.35,93.22,213.59z"/>
			</g>
			<g>
				<path class="st5" d="M105.81,217.58c0.65,0.2,1.29,0.41,1.94,0.61c0.92,0.29,0.53,1.74-0.4,1.45c-0.65-0.2-1.29-0.41-1.94-0.61
					C104.49,218.74,104.89,217.29,105.81,217.58z"/>
			</g>
			<g>
				<path class="st5" d="M105.1,203.82c0.71,0.23,1.42,0.45,2.13,0.68c0.92,0.29,0.52,1.74-0.4,1.45c-0.71-0.23-1.42-0.45-2.13-0.68
					C103.79,204.98,104.18,203.53,105.1,203.82z"/>
			</g>
			<g>
				<path class="st5" d="M70.71,177.56c0.71,0.17,1.41,0.34,2.12,0.51c0.94,0.23,0.54,1.67-0.4,1.45c-0.71-0.17-1.41-0.34-2.12-0.51
					C69.38,178.78,69.77,177.33,70.71,177.56z"/>
			</g>
		</g>
	</g>
	<path class="st6" d="M227.86,131.75c3.29-0.71,6.4-2.04,9.45-3.44c0.03,1.1,0.05,2.2,0.08,3.31c0.06,2.58,0.4,5.64,2.66,6.88
		c-0.93,0.74-2.46,0.52-3.16-0.44c-0.33,4.72,1.69,9.29,4.13,13.34c-5.58-1.2-10.59-4.83-13.47-9.76c-0.53,1.57-0.73,3.24-0.61,4.89
		c-5.5-2.86-9.14-8.97-9.03-15.17C221.08,132.5,224.58,132.45,227.86,131.75z"/>
	<path class="st7" d="M201.1,57.29l-13.09,6.49c0,0-18.47-41.65-14.12-44.32C178.25,16.79,201.1,57.29,201.1,57.29z"/>
	<path class="st6" d="M173.9,19.46c0.39-0.24,0.94-0.12,1.59,0.28c0.09,3.59,1.43,7.18,2.89,10.53c1.3,2.97,2.69,5.9,4.18,8.78
		c1.81,3.5,3.78,6.96,6.43,9.88c2.65,2.92,6.05,5.28,9.91,6.09c-3.65,2.7-7.55,5.06-11.61,7.1
		C183.92,54.35,170.07,21.81,173.9,19.46z"/>
	<path class="st7" d="M238.57,15.47c5.06,0.7-3.03,46.49-3.03,46.49l-14.23-3.3C221.31,58.66,233.51,14.77,238.57,15.47z"/>
	<path class="st6" d="M238.57,15.47c0.45,0.06,0.8,0.5,1.06,1.23c-2.21,2.83-3.46,6.45-4.46,9.97c-0.89,3.12-1.67,6.27-2.35,9.44
		c-0.83,3.85-1.51,7.78-1.32,11.71c0.19,3.94,1.32,7.92,3.78,11c-4.54-0.24-9.05-0.89-13.48-1.9
		C224.13,48.77,234.11,14.85,238.57,15.47z"/>
	<path class="st0" d="M267.53,95.45c-0.9-7.84-5.26-14.96-10.81-20.57s-12.25-9.92-18.9-14.18c-0.56-0.36-1.23-0.73-1.86-0.61
		c-1.7-1.1-3.52-2.04-5.37-2.85c-14.05-6.1-30.95-5.1-44.21,2.55c0-0.03-0.01-0.07-0.01-0.1c-7.71,1.7-14.33,6.78-19.35,12.87
		c-5.01,6.1-8.6,13.21-12.15,20.26c-0.34,0.68-0.68,1.49-0.32,2.15c0.39,0.72,1.36,0.83,2.18,0.85c5.67,0.11,11.54-0.28,16.58-2.87
		c1.54-0.79,2.97-1.79,4.27-2.92c3.17,15.45,12.83,33.51,34.67,40.25c9.67,2.98,19.39,4.21,27.23-2.19c4.37-3.57,6.7-9.06,8.1-14.53
		c1.76-6.89,2.27-14.04,1.84-21.15C255.07,94.87,261.36,95.64,267.53,95.45z"/>
	<path class="st1" d="M176.18,78.46c1.31-2.62,2.26-5.44,3.99-7.8c0.89-1.2,2.42-2.36,3.75-1.67c0.84,0.43,1.21,1.49,1.12,2.43
		c-0.09,0.94-0.55,1.81-1,2.64c-2.92,5.43-4.3,9.36-8.84,13.53c-4.54,4.18-11.36,7.14-18.57,6.85
		C165.01,92.17,172.3,86.21,176.18,78.46z"/>
	<path class="st6" d="M154.07,142.94c2.9-0.02,5.8-0.71,8.4-2.01c-0.73,0.01-1.47-0.25-2.03-0.72c3.7-0.6,7.22-2.26,10.02-4.74
		c-1.93,0.09-3.88-0.95-4.87-2.61c4.76,0.06,9.51-2.05,12.66-5.62c-0.99-0.37-1.88-1.01-2.53-1.84c3.85-0.76,7.27-3.45,8.92-7.01
		c1.27,0.59,2.01,2,2.15,3.39c0.14,1.39-0.25,2.79-0.73,4.1c-1.96,5.37-5.64,10.1-10.37,13.31c-5.44,3.69-11.99,5.31-18.38,6.85
		c-3.09,0.75-6.8,1.34-9.06-0.9c2.37-0.35,4.73-0.77,7.07-1.25C154.9,143.57,154.48,143.26,154.07,142.94z"/>
	<g id="layer7_3_" transform="translate(-159.49345,-229.70978)" class="st4">
		<g id="g4823_3_" transform="translate(12.595339,-3.9774756)">
			<path id="path4686_7_" class="st5" d="M376.08,348.52l-2.19,0.03l-1.28-0.03c-0.41-0.01-0.77,0.18-1.04,0.47
				c-0.26,0.29-0.39,0.68-0.46,1.11l-0.35,2.44l-0.48,2.45c-0.09,0.44,0.03,0.83,0.24,1.11s0.54,0.44,0.93,0.45l1.29,0.03l2.55-0.06
				c0.49-0.01,0.94-0.2,1.28-0.49c0.33-0.29,0.53-0.69,0.57-1.12l0.22-2.43l0.18-2.43c0.03-0.43-0.16-0.82-0.43-1.1
				C376.84,348.69,376.47,348.52,376.08,348.52L376.08,348.52z"/>
			<path id="path4688_7_" class="st5" d="M375.68,349.26l-1.79,0.02l-0.85-0.03c-0.32-0.01-0.62,0.15-0.85,0.38
				s-0.36,0.56-0.42,0.91l-0.35,1.99l-0.43,2c-0.08,0.36,0,0.68,0.17,0.91c0.17,0.23,0.44,0.36,0.76,0.37l0.88,0.03l2.03-0.04
				c0.38-0.01,0.75-0.16,1.02-0.4s0.45-0.56,0.5-0.92l0.25-1.99l0.22-1.98c0.04-0.35-0.1-0.67-0.31-0.9
				C376.29,349.4,376,349.26,375.68,349.26L375.68,349.26z"/>
			<path id="path4686_6_" class="st5" d="M370.07,348.26l-2.19,0.03l-1.28-0.03c-0.41-0.01-0.77,0.18-1.04,0.47
				c-0.26,0.29-0.39,0.68-0.46,1.11l-0.35,2.44l-0.48,2.45c-0.09,0.44,0.03,0.83,0.24,1.11c0.21,0.28,0.54,0.44,0.93,0.45l1.29,0.03
				l2.55-0.06c0.49-0.01,0.94-0.2,1.28-0.49c0.33-0.29,0.53-0.69,0.57-1.12l0.22-2.43l0.18-2.43c0.03-0.43-0.16-0.82-0.43-1.1
				C370.84,348.42,370.47,348.26,370.07,348.26L370.07,348.26z"/>
			<path id="path4688_6_" class="st5" d="M369.67,349l-1.79,0.02l-0.85-0.03c-0.32-0.01-0.62,0.15-0.85,0.38s-0.36,0.56-0.42,0.91
				l-0.35,1.99l-0.43,2c-0.08,0.36,0,0.68,0.17,0.91c0.17,0.23,0.44,0.36,0.76,0.37l0.88,0.03l2.03-0.04
				c0.38-0.01,0.75-0.16,1.02-0.4c0.27-0.24,0.45-0.56,0.5-0.92l0.25-1.99l0.22-1.98c0.04-0.35-0.1-0.67-0.31-0.9
				C370.29,349.13,370,349,369.67,349L369.67,349z"/>
			<path id="path4690_3_" class="st5" d="M358.32,345.57c0.08,1.02,0.71,1.94,1.6,2.77s2.12,1.56,3.55,2.17
				c1.43,0.6,3.03,1.07,4.66,1.31c1.63,0.25,3.28,0.27,4.9,0.08c1.62-0.2,3.08-0.59,4.34-1.07c1.26-0.48,2.32-1.05,3.16-1.69
				c0.83-0.63,1.45-1.33,1.84-2.12c0.39-0.78,0.55-1.65,0.41-2.58s-0.58-1.84-1.25-2.68c-0.68-0.84-1.58-1.6-2.65-2.23
				c-1.07-0.63-2.29-1.14-3.64-1.47c-1.35-0.33-2.83-0.49-4.45-0.44c-1.62,0.05-3.24,0.31-4.77,0.74c-1.53,0.43-2.98,1.02-4.19,1.75
				s-2.2,1.57-2.77,2.52C358.46,343.61,358.26,344.7,358.32,345.57L358.32,345.57z"/>
			<path id="path4692_3_" class="st5" d="M361.75,345.34c0.14,0.81,0.61,1.56,1.34,2.24c0.73,0.68,1.71,1.28,2.82,1.75
				c1.11,0.48,2.35,0.83,3.62,1.02c1.26,0.19,2.56,0.2,3.82,0.05c1.27-0.15,2.4-0.46,3.39-0.85s1.81-0.87,2.46-1.4
				c0.65-0.53,1.12-1.12,1.4-1.76c0.28-0.64,0.37-1.34,0.22-2.08c-0.15-0.74-0.51-1.45-1.05-2.09c-0.54-0.65-1.25-1.23-2.09-1.71
				c-0.84-0.48-1.8-0.87-2.86-1.11c-1.06-0.25-2.22-0.36-3.48-0.31c-1.26,0.05-2.5,0.26-3.67,0.6c-1.17,0.34-2.27,0.81-3.2,1.37
				s-1.69,1.23-2.17,1.96S361.61,344.53,361.75,345.34L361.75,345.34z"/>
			<path id="path4694_3_" class="st5" d="M366.25,340.4c0.2,0.58,0.64,1.09,1.25,1.53s1.39,0.79,2.23,1.06
				c0.84,0.27,1.75,0.46,2.63,0.56c0.89,0.1,1.75,0.11,2.56,0.02c0.81-0.09,1.5-0.27,2.08-0.53c0.58-0.25,1.05-0.58,1.43-0.96
				c0.37-0.38,0.65-0.83,0.81-1.31c0.16-0.49,0.2-1.03,0.09-1.59s-0.36-1.11-0.74-1.6c-0.38-0.49-0.89-0.93-1.5-1.29
				c-0.61-0.36-1.34-0.63-2.14-0.79c-0.8-0.16-1.68-0.21-2.61-0.13s-1.82,0.29-2.62,0.6c-0.8,0.3-1.52,0.7-2.1,1.17
				s-1.03,0.99-1.28,1.55C366.1,339.24,366.05,339.82,366.25,340.4L366.25,340.4z"/>
		</g>
	</g>
	<path class="st1" d="M236.68,69.03c1.3-0.74,2.88,0.35,3.82,1.52c1.83,2.28,2.89,5.07,4.31,7.63c4.19,7.59,11.72,13.25,20.18,15.17
		c-7.2,0.58-14.13-2.1-18.84-6.09c-4.71-3.99-6.24-7.85-9.38-13.16c-0.48-0.82-0.98-1.66-1.1-2.6
		C235.53,70.57,235.85,69.5,236.68,69.03z"/>
	<path class="st1" d="M207.07,100.44c3.47,2.44,4.31,7.23,1.87,10.7c-2.44,3.47-7.23,4.31-10.7,1.87c-3.47-2.44-4.31-7.23-1.87-10.7
		C198.81,98.83,203.6,98,207.07,100.44z"/>
	<path class="st1" d="M249.52,98.82c-0.12,4.97-0.71,9.92-1.94,14.74c-0.04,0.15-0.09,0.31-0.13,0.46c-1.09-0.19-2.16-0.6-3.12-1.28
		c-3.47-2.44-4.31-7.23-1.87-10.7C244.12,99.69,246.85,98.56,249.52,98.82z"/>
	<g>
		<g>
			<g id="g4639_2_" transform="matrix(-0.70545801,0,0,0.70545801,653.3373,199.47893)">
				<path id="path4631_2_" class="st8" d="M663.89-158.7c0.03,2.54-0.51,5.02-1.49,7.34c-0.98,2.32-2.42,4.48-4.19,6.37
					c-1.77,1.89-3.87,3.52-6.2,4.74c-2.33,1.23-4.89,2.06-7.57,2.35s-5.24,0.01-7.58-0.76c-2.34-0.77-4.45-2.03-6.23-3.68
					s-3.23-3.69-4.25-6.01s-1.59-4.92-1.63-7.68c-0.03-2.76,0.48-5.41,1.43-7.82c0.95-2.41,2.35-4.59,4.08-6.41s3.8-3.29,6.11-4.32
					c2.31-1.03,4.86-1.62,7.55-1.69c2.69-0.07,5.28,0.38,7.65,1.23c2.37,0.85,4.52,2.11,6.34,3.69c1.82,1.58,3.3,3.47,4.34,5.6
					C663.27-163.61,663.86-161.24,663.89-158.7L663.89-158.7z"/>
				<path id="path4633_2_" class="st9" d="M662.54-159.22c0.1,2.39-0.33,4.76-1.18,7c-0.86,2.24-2.15,4.36-3.77,6.22
					s-3.6,3.48-5.8,4.69c-2.2,1.22-4.64,2.03-7.21,2.32s-5.01,0.01-7.24-0.73c-2.23-0.74-4.24-1.94-5.94-3.51s-3.08-3.5-4.06-5.68
					c-0.97-2.18-1.54-4.62-1.59-7.19c-0.05-2.57,0.41-5.03,1.3-7.26c0.88-2.23,2.18-4.24,3.79-5.92c1.61-1.68,3.54-3.04,5.69-4.01
					c2.15-0.97,4.53-1.54,7.04-1.65c2.51-0.11,4.93,0.24,7.15,0.96c2.22,0.72,4.24,1.82,5.95,3.21c1.72,1.39,3.14,3.09,4.15,5.04
					C661.83-163.8,662.44-161.61,662.54-159.22L662.54-159.22z"/>
				<circle id="circle4635_2_" class="st10" cx="642.03" cy="-158.49" r="5.3"/>
				<circle id="circle4637_2_" class="st9" cx="639.59" cy="-160.82" r="2.61"/>
			</g>
			<path id="path4853_2_" class="st1" d="M192.7,77.33c-2.13,1.01-3.99,2.58-5.23,4.61c-1.14,1.86-1.65,4.06-1.54,6.24
				c0.12,3.67,2.05,7.12,4.71,9.57c2.19,1.98,4.98,3.39,7.94,3.69c1.89,0.16,3.83,0.07,5.61-0.65c1.15-0.44,2.21-1.07,3.16-1.84
				c-2,0.17-2.85,0.69-6.74,0.55c-5.48-0.2-8.47-2.2-10.8-6.33C187.67,89.39,186.45,83.22,192.7,77.33z"/>
		</g>
		<g>
			<g id="g4651_2_" transform="matrix(-0.3718816,-0.33035833,-0.33035833,0.3718816,807.54151,424.47556)">
				<path id="path4643_2_" class="st8" d="M1324.87,252.26c-0.95,2.77-2.41,5.52-4.27,8.13c-1.86,2.62-4.16,5.07-6.75,7.14
					c-2.59,2.07-5.46,3.76-8.25,4.98s-5.49,1.99-8.06,2.16c-2.56,0.17-4.78-0.27-6.74-1.27c-1.96-1-4.58-2.2-5.92-4.13
					c-1.34-1.93-2.37-4.32-2.95-7.01c-0.58-2.69-0.71-5.68-0.24-8.83c0.47-3.15,1.5-6.14,3.01-8.83c1.5-2.69,3.48-5.07,5.82-7.01
					c2.34-1.94,6.11-3.79,9.02-4.75c2.91-0.96,6.04-1.39,9.2-1.22c3.16,0.17,6.05,0.91,8.52,2.07s4.51,2.74,5.97,4.58
					c1.46,1.85,2.37,3.98,2.65,6.32S1325.83,249.49,1324.87,252.26z"/>
				<path id="path4645_2_" class="st9" d="M1323.74,251.98c-0.8,2.62-2.06,5.27-3.73,7.8c-1.68,2.53-3.81,4.9-6.29,6.87
					s-5.28,3.52-8.03,4.62s-5.42,1.74-7.9,1.86s-4.59-0.32-6.42-1.26c-1.83-0.93-4.43-2.11-5.6-3.88c-1.18-1.77-2.06-3.96-2.54-6.43
					c-0.47-2.47-0.53-5.23-0.03-8.14c0.5-2.9,1.5-5.67,2.94-8.15c1.43-2.48,3.3-4.68,5.48-6.48c2.19-1.8,5.8-3.56,8.51-4.46
					c2.71-0.9,5.61-1.32,8.54-1.19c2.92,0.13,5.59,0.78,7.86,1.81s4.12,2.44,5.47,4.11c1.35,1.68,2.2,3.62,2.5,5.77
					S1324.54,249.36,1323.74,251.98L1323.74,251.98z"/>
				<circle id="circle4647_2_" class="st10" cx="1296.57" cy="243.46" r="5.71"/>
				<circle id="circle4649_2_" class="st9" cx="1295.7" cy="240.43" r="2.81"/>
			</g>
			<path id="path4855_2_" class="st1" d="M236.06,76.81c-1.76,0.58-3.15,2.1-3.93,3.75c-1.55,3.2-1.85,6.97-0.98,10.4
				c0.79,2.74,2.19,5.46,4.52,7.19c1.16,0.78,2.57,1.08,3.92,1.32c1.33,0.13,2.57-0.45,3.67-1.17c-2.05,0.16-3.49,0.11-5.83-0.98
				c-3.36-1.56-4.31-4.26-5.21-8.08C231.44,85.96,231,81.65,236.06,76.81z"/>
		</g>
	</g>
	<path class="st3" d="M267.89,93.48c0.01-0.33,0.07-0.62,0.17-0.89c-1.72-7.98-6.6-14.34-10.63-18.41
		c-5.65-5.72-12.47-10.09-19.07-14.31c-0.62-0.4-1.36-0.79-2.15-0.79c-1.6-1.01-3.35-1.93-5.23-2.74
		c-14.14-6.14-31.22-5.23-44.68,2.36l-0.15,0.03c-9.12,2.01-15.86,8.3-19.9,13.21c-3.8,4.63-6.8,9.83-9.53,15.07
		c-0.05,0.26-0.13,0.53-0.28,0.8c-0.76,1.43-1.3,3.28-1.75,4.84c-0.55,1.88-0.64,3.14,1.4,3.68c1.39,0.36,2.91,0.36,4.37,0.5
		c4.39-0.14,9.07-0.79,13.31-2.97c1.09-0.56,2.16-1.24,3.18-2.01c0.98,4.17,2.84,10.09,6.29,16.19c0.28,0.14,0.55,0.34,0.79,0.63
		c3.15,3.65,6.19,7.04,9.67,10.33c1.88,1.78,3.76,3.37,5.72,4.87c3.78,2.24,7.51,4.43,11.71,5.77c1.65,0.53,3.09,1.27,4.45,2.12
		c0.28,0.05,0.56,0.14,0.81,0.27c0.06,0.03,0.09,0.05,0.13,0.07c0.01,0,0.01,0,0.01,0c0.16,0.03,0.32,0.1,0.47,0.15
		c0.47,0.17,0.92,0.37,1.37,0.58c0.09,0.04,0.18,0.09,0.27,0.13c2.32,0.45,4.72,0.75,7.13,0.75c3.6,0,7.21-0.67,10.61-2.41
		c0.36-0.65,0.99-1.14,1.71-1.32c0.3-0.59,0.83-1.07,1.58-1.24c0.3-0.22,0.59-0.45,0.89-0.66c0.08-0.06,0.17-0.09,0.26-0.13
		c0.83-0.79,1.72-1.59,2.53-2.46c0,0,0,0,0,0c0.07-0.29,0.2-0.6,0.43-0.9c0.74-1.01,1.28-2.09,1.87-3.19
		c0.24-0.44,0.53-0.87,0.82-1.31c0.14-0.33,0.28-0.67,0.41-1.01c-0.04-0.46,0.04-0.94,0.29-1.44c1.3-2.59,1.56-5.83,2.12-8.65
		c0.66-3.32,1-6.63,1.08-10.01c0.01-0.33,0.08-0.62,0.17-0.88c-0.11-0.48-0.1-0.99,0.03-1.47c0-0.89,0-1.79-0.04-2.69
		c0.78,0.29,1.58,0.55,2.4,0.8c0.07,0,0.13-0.02,0.2-0.02c0.36,0,0.68,0.06,0.96,0.17c0.27-0.04,0.55-0.06,0.86-0.02
		c3.5,0.48,7,0.86,10.52,1.18c0.23,0.02,1.87,0.27,2.15,0.41l0.06,0c0.04-0.07,0.1-0.19,0.18-0.35c-0.05-0.24-0.07-0.5-0.04-0.78
		C267.87,94.7,267.91,94.09,267.89,93.48z M249.82,91.5l-1.5-0.65l0.1,1.63c0.45,7.36-0.16,14.37-1.81,20.84
		c-1.66,6.52-4.2,11.1-7.76,14c-7.94,6.47-17.75,4.65-26.3,2.01c-24.04-7.41-31.61-27.92-33.99-39.49l-0.35-1.68l-1.29,1.13
		c-1.28,1.12-2.65,2.06-4.06,2.79c-5.08,2.61-10.99,2.87-16.11,2.76c-1.01-0.02-1.26-0.21-1.32-0.33c-0.15-0.27,0.22-0.99,0.34-1.23
		c3.47-6.9,7.07-14.04,12.03-20.07c1.99-2.43,4.68-5.2,7.99-7.57c2.39-1.88,5.28-3.33,7.66-4.51c2.58-1.27,5.11-2.09,7.7-2.6
		c12.23-5.46,26.78-5.69,39.04-0.36c1.49,0.65,2.9,1.37,4.21,2.14c0.54,0.19,1.07,0.38,1.59,0.61c0.11,0.05,0.2,0.11,0.3,0.17
		c0.33,0.04,0.82,0.34,0.99,0.46c6.5,4.17,13.23,8.48,18.72,14.04c4.07,4.12,9.09,10.68,10.38,18.89
		C260.1,94.53,254.52,93.54,249.82,91.5z"/>
	<path class="st3" d="M197.54,224.54c-0.39-0.06-0.7-0.22-0.92-0.46c-0.39,0.1-0.79,0.21-1.18,0.3c-2.43,0.6-4.88,1.13-7.33,1.64
		c-0.08,0.3-0.24,0.57-0.47,0.78c0.18,0.38,0.24,0.82,0.16,1.24c0.02,0.03,0.04,0.06,0.06,0.09c2.7-0.56,5.4-1.15,8.07-1.81
		c0.71-0.17,1.42-0.36,2.13-0.55C197.71,225.45,197.56,225,197.54,224.54z"/>
	<path class="st3" d="M179.31,228.55c-0.08-0.03-0.13-0.08-0.2-0.12c-0.33-0.1-0.59-0.29-0.78-0.54
		c-15.56,2.58-31.47,3.53-47.25,2.9c-1.32,0.09-2.74,0.12-3.92,0.59c0.03,0.17,0.03,0.34,0,0.52c0.14,0.22,0.24,0.47,0.27,0.74
		c4.28,0.24,8.58,0.38,12.88,0.38c13.21,0,26.45-1.14,39.44-3.35C179.48,229.36,179.34,228.96,179.31,228.55z"/>
	<path class="st3" d="M117.99,231.14c-0.08-0.05-0.15-0.11-0.22-0.19c-0.04-0.03-0.09-0.05-0.14-0.08c-0.1-0.04-0.21-0.08-0.31-0.11
		c-0.34-0.11-0.66-0.24-0.99-0.38c-0.19-0.11-0.34-0.27-0.48-0.44c-0.03,0-0.05,0.01-0.08,0.01c-0.47,0-0.84-0.16-1.11-0.4
		c-2.35-0.26-4.7-0.54-7.03-0.87c-0.15-0.02-0.32-0.06-0.48-0.09c-0.1,0.03-0.21,0.04-0.32,0.05c-0.07,0.02-0.15,0.02-0.22,0.04
		c-0.05,0.01-0.11,0.02-0.16,0.03c-0.06,0.01-0.11,0.03-0.17,0.03c-0.02,0-0.04,0-0.06-0.01c-0.02,0-0.03,0.01-0.05,0.01
		c-0.2,0-0.37-0.03-0.53-0.08c-0.09,0.06-0.18,0.12-0.29,0.16c-0.07,0.04-0.14,0.06-0.22,0.08c-0.02,0.15-0.05,0.31-0.11,0.46
		c0.34,0.23,0.56,0.58,0.66,0.98c0.59,0.14,1.16,0.27,1.67,0.34c3.6,0.52,7.22,0.95,10.86,1.3
		C118.06,231.7,118,231.42,117.99,231.14z"/>
	<path class="st3" d="M95.24,226.3c-0.21-0.28-0.32-0.62-0.35-0.97c-0.09-0.15-0.15-0.32-0.19-0.49c-0.46-0.17-0.77-0.52-0.94-0.94
		c-0.05-0.03-0.08-0.07-0.12-0.1c-0.27-0.15-0.48-0.37-0.62-0.63c-1.87-0.93-3.56-1.84-4.8-2.61c-6.44-3.96-17.84-15.96-21.01-31.33
		c-0.8-3.87-1.01-7.67-0.67-11.41c-0.22-0.06-0.44-0.12-0.65-0.19c-0.18-0.06-0.35-0.11-0.53-0.16c-0.12-0.03-0.24-0.06-0.35-0.09
		c-0.21-0.04-0.24-0.05-0.07-0.01c-0.12-0.01-0.24-0.03-0.36-0.06c-0.41,4.03-0.18,8.14,0.68,12.32
		c3.29,15.99,15.19,28.5,21.92,32.63c1.78,1.1,4.81,2.69,8.11,4.2C95.26,226.41,95.25,226.35,95.24,226.3z"/>
	<path class="st3" d="M185.47,108.79c-0.24-0.11-0.46-0.26-0.61-0.48c-3.59,39.25-42.28,39.92-73.43,40.45
		c-18.01,0.31-33.56,0.57-38.96,8.24c-1.21,1.71-2.27,3.45-3.21,5.21c0.3,0.05,0.61,0.1,0.9,0.16c0.39,0.08,0.77,0.16,1.16,0.23
		c0.83-1.5,1.74-2.99,2.78-4.46c4.81-6.84,19.9-7.09,37.36-7.39c31.42-0.54,70.32-1.21,75.17-40.22
		C186.17,110.01,185.78,109.42,185.47,108.79z"/>
	<path class="st3" d="M222.94,131.51c-0.67,0.06-1.34,0.06-2-0.04c0.02,7.25,0,16.92-0.02,26.34c-0.03,11.36-0.05,23.11,0,30.52
		c0.07,10.11-0.35,19.74-6.16,26.47c-2.15,2.49-4.89,4.32-7.92,5.76c-0.13,0.2-0.3,0.37-0.52,0.5c-0.04,0.06-0.08,0.11-0.14,0.16
		c-0.11,0.11-0.23,0.2-0.36,0.27c-0.01,0.01-0.01,0.01-0.02,0.02c-0.06,0.18-0.15,0.35-0.26,0.5c0.17,0.2,0.29,0.43,0.37,0.68
		c0.04,0.13,0.05,0.28,0.05,0.43c0.01,0.01,0.01,0.02,0.02,0.03c3.94-1.65,7.53-3.84,10.29-7.04c6.26-7.25,6.72-17.28,6.64-27.79
		c-0.05-7.4-0.02-19.15,0-30.5C222.94,148.42,222.96,138.76,222.94,131.51z"/>
	<g id="layer7_2_" transform="translate(-159.49345,-229.70978)">
		<g id="g4823_2_" transform="translate(12.595339,-3.9774756)">
			<path id="path4686_5_" class="st11" d="M377.73,348.1l-2.19,0.03l-1.28-0.03c-0.41-0.01-0.77,0.18-1.04,0.47
				c-0.26,0.29-0.39,0.68-0.46,1.11l-0.35,2.44l-0.48,2.45c-0.09,0.44,0.03,0.83,0.24,1.11c0.21,0.28,0.54,0.44,0.93,0.45l1.29,0.03
				l2.55-0.06c0.49-0.01,0.94-0.2,1.28-0.49c0.33-0.29,0.53-0.69,0.57-1.12l0.22-2.43l0.18-2.43c0.03-0.43-0.16-0.82-0.43-1.1
				C378.49,348.26,378.12,348.1,377.73,348.1L377.73,348.1z"/>
			<path id="path4688_5_" class="st9" d="M377.33,348.84l-1.79,0.02l-0.85-0.03c-0.32-0.01-0.62,0.15-0.85,0.38
				c-0.22,0.23-0.36,0.56-0.42,0.91l-0.35,1.99l-0.43,2c-0.08,0.36,0,0.68,0.17,0.91c0.17,0.23,0.44,0.36,0.76,0.37l0.88,0.03
				l2.03-0.04c0.38-0.01,0.75-0.16,1.02-0.4c0.27-0.24,0.45-0.56,0.5-0.92l0.25-1.99l0.22-1.98c0.04-0.35-0.1-0.67-0.31-0.9
				C377.95,348.97,377.65,348.84,377.33,348.84L377.33,348.84z"/>
			<path id="path4686_4_" class="st11" d="M371.73,347.84l-2.19,0.03l-1.28-0.03c-0.41-0.01-0.77,0.18-1.04,0.47
				s-0.39,0.68-0.46,1.11l-0.35,2.44l-0.48,2.45c-0.09,0.44,0.03,0.83,0.24,1.11c0.21,0.28,0.54,0.44,0.93,0.45l1.29,0.03l2.55-0.06
				c0.49-0.01,0.94-0.2,1.28-0.49c0.33-0.29,0.53-0.69,0.57-1.12l0.22-2.43l0.18-2.43c0.03-0.43-0.16-0.82-0.43-1.1
				S372.12,347.84,371.73,347.84L371.73,347.84z"/>
			<path id="path4688_4_" class="st9" d="M371.33,348.58l-1.79,0.02l-0.85-0.03c-0.32-0.01-0.62,0.15-0.85,0.38
				s-0.36,0.56-0.42,0.91l-0.35,1.99l-0.43,2c-0.08,0.36,0,0.68,0.17,0.91c0.17,0.23,0.44,0.36,0.76,0.37l0.88,0.03l2.03-0.04
				c0.38-0.01,0.75-0.16,1.02-0.4c0.27-0.24,0.45-0.56,0.5-0.92l0.25-1.99l0.22-1.98c0.04-0.35-0.1-0.67-0.31-0.9
				C371.94,348.71,371.65,348.57,371.33,348.58L371.33,348.58z"/>
			<path id="path4690_2_" class="st6" d="M359.98,345.15c0.08,1.02,0.71,1.94,1.6,2.77c0.89,0.83,2.12,1.56,3.55,2.17
				c1.43,0.6,3.03,1.07,4.66,1.31c1.63,0.25,3.28,0.27,4.9,0.08c1.62-0.2,3.08-0.59,4.34-1.07c1.26-0.48,2.32-1.05,3.16-1.69
				c0.83-0.63,1.45-1.33,1.84-2.12c0.39-0.78,0.55-1.65,0.41-2.58s-0.58-1.84-1.25-2.68s-1.58-1.6-2.65-2.23s-2.29-1.14-3.64-1.47
				c-1.35-0.33-2.83-0.49-4.45-0.44c-1.62,0.05-3.24,0.31-4.77,0.74c-1.53,0.43-2.98,1.02-4.19,1.75c-1.21,0.73-2.2,1.57-2.77,2.52
				C360.11,343.18,359.91,344.28,359.98,345.15L359.98,345.15z"/>
			<path id="path4692_2_" class="st12" d="M363.4,344.92c0.14,0.81,0.61,1.56,1.34,2.24c0.73,0.68,1.71,1.28,2.82,1.75
				c1.11,0.48,2.35,0.83,3.62,1.02c1.26,0.19,2.56,0.2,3.82,0.05s2.4-0.46,3.39-0.85c0.98-0.39,1.81-0.87,2.46-1.4
				s1.12-1.12,1.4-1.76c0.28-0.64,0.37-1.34,0.22-2.08c-0.15-0.74-0.51-1.45-1.05-2.09c-0.54-0.65-1.25-1.23-2.09-1.71
				s-1.8-0.87-2.86-1.11c-1.06-0.25-2.22-0.36-3.48-0.31c-1.26,0.05-2.5,0.26-3.67,0.6c-1.17,0.34-2.27,0.81-3.2,1.37
				s-1.69,1.23-2.17,1.96S363.27,344.11,363.4,344.92L363.4,344.92z"/>
			<path id="path4694_2_" class="st6" d="M367.9,339.98c0.2,0.58,0.64,1.09,1.25,1.53s1.39,0.79,2.23,1.06
				c0.84,0.27,1.75,0.46,2.63,0.56s1.75,0.11,2.56,0.02s1.5-0.27,2.08-0.53c0.58-0.25,1.05-0.58,1.43-0.96
				c0.37-0.38,0.65-0.83,0.81-1.31s0.2-1.03,0.09-1.59c-0.11-0.57-0.36-1.11-0.74-1.6c-0.38-0.49-0.89-0.93-1.5-1.29
				c-0.61-0.36-1.34-0.63-2.14-0.79s-1.68-0.21-2.61-0.13c-0.93,0.08-1.82,0.29-2.62,0.6c-0.8,0.3-1.52,0.7-2.1,1.17
				s-1.03,0.99-1.28,1.55C367.75,338.81,367.7,339.4,367.9,339.98L367.9,339.98z"/>
		</g>
	</g>
</g>
</svg>
