<?xml version="1.0" encoding="utf-8"?>
<!-- Generator: Adobe Illustrator 25.2.1, SVG Export Plug-In . SVG Version: 6.00 Build 0)  -->
<svg version="1.1" id="Layer_1" xmlns="http://www.w3.org/2000/svg" xmlns:xlink="http://www.w3.org/1999/xlink" x="0px" y="0px"
	 viewBox="0 0 305.24 305.24" style="enable-background:new 0 0 305.24 305.24;" xml:space="preserve">
<style type="text/css">
	.st0{fill:#5AC2DB;}
</style>
<g>
	<path class="st0" d="M58.68,139.67h34.47c-0.64,5.85-2.12,11.31-4.44,16.39c-2.32,5.07-5.33,9.53-9.04,13.36
		c-3.71,3.84-8.03,6.83-12.96,8.97c-4.93,2.15-10.32,3.22-16.19,3.22c-5.44,0-10.24-0.88-14.41-2.63
		c-4.17-1.75-7.59-4.26-10.26-7.51c-2.67-3.25-4.48-7.15-5.42-11.7c-0.94-4.55-0.86-9.62,0.22-15.22c1.09-5.59,3.02-10.62,5.8-15.07
		c2.78-4.45,6.19-8.24,10.22-11.36c4.03-3.12,8.52-5.51,13.44-7.17c4.92-1.66,10.11-2.49,15.54-2.49c4.94,0,9.16,0.78,12.66,2.34
		c3.5,1.56,6.43,3.63,8.8,6.19c2.37,2.57,4.33,5.45,5.87,8.63l-20.74,8.97c-0.69-2.15-1.78-4.03-3.25-5.66
		c-1.48-1.63-3.76-2.44-6.85-2.44c-3.03,0-5.94,0.67-8.73,2c-2.79,1.33-5.2,3.33-7.24,6c-2.03,2.67-3.44,6.02-4.22,10.05
		c-0.77,3.97-0.74,7.38,0.09,10.24c0.83,2.86,2.36,5.04,4.57,6.54c2.21,1.5,4.98,2.24,8.32,2.24c1.85,0,3.56-0.2,5.12-0.58
		c1.56-0.39,2.95-0.94,4.17-1.66c1.22-0.72,2.33-1.59,3.34-2.63c1-1.04,1.91-2.18,2.7-3.41H55.64L58.68,139.67z"/>
	<path class="st0" d="M93.69,129.72c2.71-4.42,6.02-8.23,9.91-11.41c3.89-3.19,8.2-5.62,12.91-7.31c4.71-1.69,9.6-2.54,14.67-2.54
		c5.19,0,9.81,0.85,13.87,2.54c4.06,1.69,7.41,4.13,10.07,7.31c2.65,3.19,4.45,6.99,5.38,11.41c0.93,4.42,0.87,9.36-0.2,14.83
		c-1.06,5.46-2.91,10.45-5.55,14.97c-2.64,4.52-5.89,8.44-9.74,11.75c-3.86,3.32-8.17,5.87-12.93,7.66
		c-4.76,1.79-9.8,2.68-15.12,2.68c-5.31,0-10-0.9-14.07-2.68c-4.07-1.79-7.39-4.34-9.95-7.66c-2.57-3.32-4.29-7.23-5.17-11.75
		c-0.88-4.52-0.79-9.51,0.27-14.97C89.08,139.09,90.97,134.15,93.69,129.72z M109.67,153.33c0.68,2.54,1.97,4.5,3.86,5.9
		c1.89,1.4,4.35,2.1,7.38,2.1c3.03,0,5.76-0.7,8.19-2.1c2.43-1.4,4.48-3.37,6.15-5.9c1.66-2.54,2.82-5.46,3.47-8.78
		c0.66-3.38,0.67-6.32,0.05-8.83c-0.63-2.5-1.87-4.45-3.73-5.85c-1.86-1.4-4.4-2.1-7.61-2.1c-3.03,0-5.76,0.7-8.19,2.1
		c-2.43,1.4-4.48,3.35-6.14,5.85c-1.66,2.5-2.82,5.45-3.48,8.83C108.97,147.86,108.99,150.79,109.67,153.33z"/>
	<path class="st0" d="M178.52,160.25l0.63,4.88l-9.68,13.56H146.3l50.82-73.15l22.38,73.15h-23.17l-4.35-12.87l2.47-5.56
		l-4.31-18.83L178.52,160.25z M170.65,154.5h34.29l-3,15.41h-34.29L170.65,154.5z"/>
	<path class="st0" d="M218.92,110.41h57.45l-3.7,19.02h-18.53l-9.57,49.26h-20.38l9.57-49.26h-18.53L218.92,110.41z"/>
</g>
</svg>
